<svg width="143" height="48" viewBox="0 0 143 48" fill="none" xmlns="http://www.w3.org/2000/svg">

    <path d="M97.7219 42.6564C98.0292 42.6564 98.3052 42.5965 98.55 42.4767C98.8 42.3517 99.0005 42.1798 99.1516 41.9611C99.3078 41.7423 99.3937 41.4897 99.4094 41.2032H101.183C101.172 41.7501 101.011 42.2475 100.698 42.6954C100.386 43.1434 99.9719 43.5001 99.4562 43.7657C98.9406 44.0262 98.3703 44.1564 97.7453 44.1564C97.0995 44.1564 96.537 44.047 96.0578 43.8282C95.5786 43.6043 95.1802 43.297 94.8625 42.9064C94.5448 42.5157 94.3052 42.0652 94.1437 41.5548C93.9875 41.0444 93.9094 40.4975 93.9094 39.9142V39.6407C93.9094 39.0574 93.9875 38.5105 94.1437 38.0001C94.3052 37.4845 94.5448 37.0314 94.8625 36.6407C95.1802 36.2501 95.5786 35.9454 96.0578 35.7267C96.537 35.5027 97.0969 35.3907 97.7375 35.3907C98.4146 35.3907 99.0083 35.5262 99.5187 35.797C100.029 36.0626 100.43 36.435 100.722 36.9142C101.019 37.3881 101.172 37.9402 101.183 38.5704H99.4094C99.3937 38.2579 99.3156 37.9767 99.175 37.7267C99.0396 37.4715 98.8469 37.2684 98.5969 37.1173C98.3521 36.9663 98.0578 36.8907 97.7141 36.8907C97.3338 36.8907 97.0187 36.9689 96.7687 37.1251C96.5187 37.2762 96.3234 37.4845 96.1828 37.7501C96.0422 38.0105 95.9406 38.3048 95.8781 38.6329C95.8208 38.9559 95.7922 39.2918 95.7922 39.6407V39.9142C95.7922 40.2631 95.8208 40.6017 95.8781 40.9298C95.9354 41.2579 96.0344 41.5522 96.175 41.8126C96.3208 42.0678 96.5187 42.2736 96.7687 42.4298C97.0187 42.5809 97.3365 42.6564 97.7219 42.6564Z" fill="#EF4444"/>

    <path d="M104.494 32.0001V44.0001H102.603V32.0001H104.494Z" fill="#EF4444"/>

    <path d="M106.047 39.8673V39.6876C106.047 39.0782 106.135 38.5131 106.312 37.9923C106.49 37.4663 106.745 37.0105 107.078 36.6251C107.417 36.2345 107.828 35.9324 108.312 35.7189C108.802 35.5001 109.354 35.3907 109.969 35.3907C110.589 35.3907 111.141 35.5001 111.625 35.7189C112.115 35.9324 112.529 36.2345 112.867 36.6251C113.206 37.0105 113.464 37.4663 113.641 37.9923C113.818 38.5131 113.906 39.0782 113.906 39.6876V39.8673C113.906 40.4767 113.818 41.0418 113.641 41.5626C113.464 42.0835 113.206 42.5392 112.867 42.9298C112.529 43.3152 112.117 43.6173 111.633 43.8361C111.148 44.0496 110.599 44.1564 109.984 44.1564C109.365 44.1564 108.81 44.0496 108.32 43.8361C107.836 43.6173 107.424 43.3152 107.086 42.9298C106.747 42.5392 106.49 42.0835 106.312 41.5626C106.135 41.0418 106.047 40.4767 106.047 39.8673ZM107.93 39.6876V39.8673C107.93 40.2475 107.969 40.6069 108.047 40.9454C108.125 41.284 108.247 41.5809 108.414 41.8361C108.581 42.0913 108.794 42.2918 109.055 42.4376C109.315 42.5835 109.625 42.6564 109.984 42.6564C110.333 42.6564 110.635 42.5835 110.891 42.4376C111.151 42.2918 111.365 42.0913 111.531 41.8361C111.698 41.5809 111.82 41.284 111.898 40.9454C111.982 40.6069 112.023 40.2475 112.023 39.8673V39.6876C112.023 39.3126 111.982 38.9585 111.898 38.6251C111.82 38.2866 111.695 37.9871 111.523 37.7267C111.357 37.4663 111.143 37.2631 110.883 37.1173C110.628 36.9663 110.323 36.8907 109.969 36.8907C109.615 36.8907 109.307 36.9663 109.047 37.1173C108.792 37.2631 108.581 37.4663 108.414 37.7267C108.247 37.9871 108.125 38.2866 108.047 38.6251C107.969 38.9585 107.93 39.3126 107.93 39.6876Z" fill="#EF4444"/>

    <path d="M117.202 37.3517V44.0001H115.319V35.547H117.092L117.202 37.3517ZM116.866 39.4611L116.256 39.4532C116.261 38.8543 116.345 38.3048 116.506 37.8048C116.673 37.3048 116.902 36.8751 117.194 36.5157C117.491 36.1564 117.845 35.8803 118.256 35.6876C118.668 35.4897 119.126 35.3907 119.631 35.3907C120.037 35.3907 120.405 35.448 120.733 35.5626C121.066 35.672 121.35 35.8517 121.584 36.1017C121.824 36.3517 122.006 36.6772 122.131 37.0782C122.256 37.4741 122.319 37.9611 122.319 38.5392V44.0001H120.428V38.5314C120.428 38.1251 120.368 37.8048 120.248 37.5704C120.134 37.3309 119.965 37.1616 119.741 37.0626C119.522 36.9585 119.248 36.9064 118.92 36.9064C118.597 36.9064 118.308 36.9741 118.053 37.1095C117.798 37.2449 117.582 37.4298 117.405 37.6642C117.233 37.8986 117.1 38.1694 117.006 38.4767C116.912 38.784 116.866 39.1121 116.866 39.4611Z" fill="#EF4444"/>

    <path d="M127.817 44.1564C127.192 44.1564 126.627 44.0548 126.122 43.8517C125.622 43.6434 125.195 43.3543 124.841 42.9845C124.492 42.6147 124.223 42.1798 124.036 41.6798C123.848 41.1798 123.755 40.6407 123.755 40.0626V39.7501C123.755 39.0887 123.851 38.4897 124.044 37.9532C124.236 37.4168 124.505 36.9585 124.848 36.5782C125.192 36.1928 125.598 35.8986 126.067 35.6954C126.536 35.4923 127.044 35.3907 127.591 35.3907C128.195 35.3907 128.723 35.4923 129.177 35.6954C129.63 35.8986 130.005 36.185 130.302 36.5548C130.604 36.9194 130.828 37.3543 130.973 37.8595C131.124 38.3647 131.2 38.922 131.2 39.5314V40.3361H124.669V38.9845H129.341V38.8361C129.33 38.4975 129.262 38.1798 129.137 37.8829C129.018 37.5861 128.833 37.3465 128.583 37.1642C128.333 36.9819 127.999 36.8907 127.583 36.8907C127.27 36.8907 126.992 36.9585 126.747 37.0939C126.507 37.2241 126.307 37.4142 126.145 37.6642C125.984 37.9142 125.859 38.2163 125.77 38.5704C125.687 38.9194 125.645 39.3126 125.645 39.7501V40.0626C125.645 40.4324 125.695 40.7762 125.794 41.0939C125.898 41.4064 126.049 41.6798 126.247 41.9142C126.445 42.1486 126.684 42.3335 126.966 42.4689C127.247 42.5991 127.567 42.6642 127.927 42.6642C128.38 42.6642 128.783 42.573 129.137 42.3907C129.492 42.2085 129.799 41.9506 130.059 41.6173L131.052 42.5782C130.869 42.8439 130.632 43.0991 130.341 43.3439C130.049 43.5835 129.692 43.7788 129.27 43.9298C128.854 44.0809 128.369 44.1564 127.817 44.1564Z" fill="#EF4444"/>

    <path d="M13.2142 0.126345C12.2647 0.489392 10.7008 2.44426 9.77926 4.37119C8.52256 7.05215 7.96403 9.42591 7.96403 12.1627C7.96403 14.1455 8.07573 14.7878 8.71805 16.2121C9.13695 17.1057 9.80718 18.2228 10.2261 18.6696C11.1756 19.675 12.935 20.4849 14.1358 20.5128C14.8898 20.5128 15.0295 20.6245 15.0295 21.2109C15.0295 21.6019 14.7781 22.5235 14.4989 23.3054C13.2701 26.517 10.7846 28.3322 7.5172 28.3322C5.19929 28.3322 3.52369 27.5782 2.90931 26.2657C2.15529 24.6738 2.32285 23.6964 3.60747 22.1325C4.4732 21.1272 4.80832 20.4569 4.92003 19.5353C5.03173 18.4183 4.97588 18.2507 4.38942 18.0552C2.7976 17.4688 0.814813 18.9489 0.200427 21.1272C0.0328672 21.7974 -0.0509126 23.0541 0.0328672 23.9478C0.451767 28.5277 3.88674 30.8736 9.58377 30.4826C12.7116 30.2592 14.3313 29.6448 16.0348 27.9133C17.8221 26.154 18.5761 24.1712 18.9392 20.5407C19.2464 17.4688 19.3022 5.71167 19.0509 2.55596C18.8554 0.433538 18.8554 0.405612 17.9897 0.293905C16.0069 -0.0132876 13.7448 -0.0970675 13.2142 0.126345ZM14.9457 4.09193C15.1132 4.31534 15.1691 7.05215 15.0853 10.9339C14.9736 16.9661 14.9178 17.4409 14.443 17.5805C13.5214 17.8877 12.4044 17.1057 11.6783 15.6256C11.036 14.3689 10.9801 13.8942 10.9801 10.8781C10.9801 7.24763 11.2873 5.93508 12.4323 4.59461C13.1584 3.70095 14.443 3.44961 14.9457 4.09193ZM48.709 0.880364C48.6252 1.10378 48.5414 1.94158 48.5414 2.72352C48.5414 3.53339 48.4576 5.0135 48.3459 6.04679L48.1784 7.9458H46.8937C45.637 7.9458 43.5984 8.33677 43.3191 8.58811C43.2633 8.67189 43.3191 8.97908 43.4867 9.28628C43.766 9.78896 44.3524 10.0124 47.3685 10.6268L47.9829 10.7385L47.927 17.385C47.8432 23.1937 47.8991 24.227 48.3738 25.7351C49.2675 28.6953 51.3061 30.4826 53.3727 30.0916C54.406 29.8961 55.7744 28.416 56.696 26.517C57.1149 25.5954 57.4779 25.0927 57.4779 25.3999C57.4779 26.3215 58.7905 28.807 59.4886 29.2817C59.8517 29.5331 60.8291 29.8403 61.639 30.0078C64.0407 30.4547 65.437 29.4493 66.8613 26.2098L67.3081 25.1207L67.5594 25.9305C67.8666 27.0476 69.3747 28.5277 70.38 28.7232C71.4692 28.9466 72.9213 28.3043 73.6754 27.271L74.3177 26.4053L74.9041 27.5782C75.6861 29.0863 76.5239 29.6727 78.5346 30.0358C80.0147 30.2871 80.266 30.2871 80.9084 29.7844C81.2993 29.5052 81.9696 28.6394 82.3885 27.8854L83.1704 26.517V29.8403L81.1039 31.8789C78.8139 34.113 77.1383 37.0453 76.3284 40.201C74.96 45.5909 76.6914 47.9646 82.0254 47.9926C84.3154 48.0205 84.3433 48.0205 85.1253 47.0989C86.4378 45.535 86.6333 44.3621 86.8009 37.2688L86.9405 30.706H87.8342C88.3368 30.706 88.8954 30.5384 89.0909 30.343C89.3981 30.0358 89.3422 29.8682 88.7837 29.4214C88.4206 29.1421 87.8062 28.8908 87.4153 28.8908H86.7171L86.8567 24.3387C86.9684 20.8479 87.1081 19.5912 87.4711 18.893L87.9459 17.9715L87.0243 17.6084L86.1027 17.2174V14.704C86.1027 12.3024 86.0469 12.1348 85.3208 11.3528C84.9019 10.906 84.0082 10.4033 83.3659 10.2079C82.7236 10.0403 81.6065 9.6214 80.8804 9.28628C79.3445 8.58811 78.5346 8.72775 77.1941 9.90066C75.2951 11.5763 74.3456 14.8716 73.9826 20.9317C73.7591 24.8135 73.3402 26.1819 72.279 26.517C71.4971 26.7683 70.9665 26.2657 70.6034 25.009C70.2404 23.6406 70.2404 20.4849 70.6593 18.921C70.9665 17.6922 70.9386 17.6084 70.2683 17.0499C69.626 16.5193 69.5422 16.2121 69.4305 14.1455C69.263 11.2132 68.8441 10.6268 66.2469 9.56554C61.0525 7.44312 58.4554 9.78896 57.4779 17.5526C57.3383 18.7534 57.087 19.8984 56.9473 20.066C56.8077 20.2335 56.4726 21.2389 56.2492 22.2722C55.6906 24.618 54.9087 26.2377 53.9592 26.8242C53.2889 27.271 53.2331 27.271 52.7025 26.7404C51.8647 25.9026 51.6133 23.2775 51.7809 17.4409C51.9764 10.1241 51.8647 10.543 53.7358 10.2916C54.6015 10.2079 56.1095 10.0961 57.087 10.0961C59.0139 10.0682 59.2932 9.81688 58.3157 8.92323C57.8689 8.53226 57.1149 8.3647 55.0204 8.25299L52.3115 8.08543L52.3674 6.13057C52.3953 5.04143 52.507 3.56132 52.5908 2.83523C52.7583 1.52268 52.7304 1.49475 51.8368 1.1317C50.2729 0.517318 48.8765 0.377685 48.709 0.880364ZM82.2488 12.5258C82.9749 13.1681 83.0308 13.3356 83.0029 15.2626C82.947 19.0327 82.2209 23.2775 81.2993 25.1207C80.657 26.4053 79.512 27.4944 78.7859 27.4944C78.4229 27.4944 77.9481 27.1872 77.6689 26.7404C76.9148 25.6234 76.9428 18.2507 77.6968 16.0445C78.4229 13.8662 79.2048 12.6933 80.2102 12.2465C81.3552 11.7438 81.3552 11.7438 82.2488 12.5258ZM66.0793 13.1122C66.8333 14.0897 67.1126 16.1283 66.582 16.9382C66.3586 17.3012 66.0514 18.921 65.8838 20.5686C65.4649 24.3108 64.9064 26.2657 63.901 27.271C62.7281 28.416 61.7507 28.3322 61.1922 26.9918C60.103 24.4504 60.5499 17.1057 61.9741 14.341C62.9795 12.3582 65.0181 11.7438 66.0793 13.1122ZM82.8912 41.2623C82.3885 44.5018 81.1876 46.1773 79.6517 45.8143C78.1995 45.4513 77.7526 42.8262 78.5625 39.6425C79.1769 37.3246 80.657 34.2806 81.9417 32.8005L83.0308 31.5717L83.1146 35.4535C83.1425 37.6039 83.0587 40.229 82.8912 41.2623Z" fill="white"/>

    <path d="M103.976 10.0124C102.551 11.4925 101.714 13.7266 101.295 17.3012C100.904 20.6524 99.7868 25.0648 99.0048 26.4891C98.5301 27.3548 98.2229 27.6341 97.6923 27.6341C96.5752 27.6341 96.2122 26.0981 96.3797 21.9091C96.4914 19.3678 96.6869 17.8598 97.1617 16.3517L97.804 14.2851L97.1896 13.7825C96.7986 13.4753 95.8491 13.2239 94.6762 13.1122C93.6429 13.0284 92.6096 12.9167 92.3862 12.8888C92.1069 12.833 91.9673 12.4699 91.9673 11.7159C91.9394 10.1241 91.6601 9.81688 90.5151 9.98444C88.8116 10.2637 88.8116 10.3196 88.9512 15.0112C89.0629 17.748 88.9792 20.0101 88.7557 21.3506C88.2531 24.3108 88.281 24.5342 88.8395 24.6459C89.5935 24.8135 90.3196 22.8028 90.9061 18.8372L91.4367 15.3464H93.0844L92.9727 18.9768C92.8051 26.0981 94.2852 29.7286 97.3571 29.7286C98.6418 29.7286 99.7588 28.8628 100.569 27.2152L101.267 25.8468L101.714 27.0476C101.965 27.6899 102.524 28.5556 102.942 28.9466C103.864 29.8123 106.461 30.4547 107.522 30.0358C108.444 29.7006 109.645 28.2205 110.399 26.5729L110.985 25.2045L111.516 26.3774C112.856 29.3655 115.928 29.5889 117.744 26.8521L118.498 25.7071L118.665 27.1593C118.917 29.0025 119.224 29.3655 120.76 29.6169C123.189 29.9799 123.189 29.952 123.748 25.763C124.223 21.9929 124.949 18.8372 125.368 18.8372C125.479 18.8372 125.619 20.7083 125.675 22.9982C125.759 26.6008 125.842 27.2431 126.289 27.7458C127.378 28.9466 130.087 28.7511 130.087 27.4665C130.087 26.4891 131.204 22.4397 132.126 20.0939L133.019 17.8598L133.159 21.7695C133.271 25.2324 133.382 25.8468 133.997 27.0476C134.388 27.8296 135.03 28.6953 135.449 29.0025C136.482 29.7565 138.465 29.7565 139.47 29.0025C141.621 27.4107 143.855 20.5128 142.235 20.5128C141.733 20.5128 141.397 21.183 141.118 22.6073C140.476 26.1819 138.326 28.2205 137.348 26.154C136.762 24.9531 136.678 20.1497 137.208 17.8598C138.046 14.2293 138.074 14.5086 136.957 13.6708C136.259 13.1402 135.477 12.833 134.583 12.7492L133.271 12.6375L132.545 14.2572C132.126 15.1788 131.204 17.6084 130.45 19.675L129.11 23.4451L128.942 14.9275L128.132 14.5086C125.898 13.3636 124.725 14.3968 123.413 18.7255C122.91 20.4011 122.463 21.8812 122.407 22.0487C122.351 22.1884 122.296 19.9263 122.296 16.9661C122.268 13.6428 122.156 11.5483 121.988 11.4366C121.821 11.3249 121.011 11.1853 120.201 11.1015L118.693 10.9339L118.581 16.2121C118.47 20.6524 118.358 21.7695 117.855 23.3334C116.766 26.6008 115.37 27.6061 114.56 25.6792C114.085 24.5342 114.029 20.3173 114.476 18.6975C114.755 17.6922 114.728 17.5526 114.085 17.022C113.499 16.5472 113.387 16.1283 113.219 14.2572C112.996 11.7717 112.577 10.7105 111.6 10.2916C108.667 8.92323 108.165 8.7836 106.713 8.7836C105.205 8.7836 105.065 8.83945 103.976 10.0124ZM109.421 12.6933C110.343 13.196 110.957 16.3517 110.259 17.0499C110.12 17.1895 109.84 18.6417 109.701 20.2335C109.31 24.0315 108.695 26.1819 107.718 27.2431C106.685 28.3322 105.54 28.2764 104.981 27.1035C104.032 25.0927 104.087 19.4236 105.093 15.9328C105.931 13.1122 107.69 11.7717 109.421 12.6933ZM22.4579 10.9619C22.2345 11.3528 21.6481 24.5901 21.7877 26.154C21.9832 27.9971 22.5976 28.6115 24.2173 28.6115C24.9155 28.6115 25.6416 28.4998 25.8091 28.3881C26.0046 28.2764 26.3397 27.1314 26.5911 25.8188C27.1217 23.2217 27.9595 20.4849 28.5739 19.3957C28.9369 18.7534 28.9648 19.0047 28.9928 22.0487C28.9928 25.763 29.3838 27.0476 30.6684 27.7178C31.59 28.1926 33.3493 27.9692 34.3547 27.2152C35.1925 26.6008 35.1925 26.6008 35.5835 27.1593C36.4771 28.4439 40.331 29.198 43.0399 28.6115C45.0785 28.1926 46.3073 27.2152 46.3073 25.9864C46.3073 24.7856 45.8884 24.2549 42.984 21.9091C40.0796 19.5633 39.6049 18.9489 39.6049 17.5805C39.6049 15.5698 42.0904 14.3689 43.5425 15.6535C44.2128 16.2679 44.7992 16.1283 45.6091 15.1788C46.1956 14.4806 46.3073 14.0617 46.2514 13.1402C46.1677 12.1906 46.028 11.9393 45.3298 11.6042C43.766 10.8502 38.6554 12.2186 36.8402 13.8942C35.388 15.2346 35.0529 17.3012 35.9744 19.0885C36.3933 19.9542 36.4492 20.2056 36.142 20.3173C35.9465 20.4011 35.6952 21.0155 35.5835 21.6578C35.1366 24.4784 33.6565 26.4053 32.6512 25.4279C32.2881 25.0369 32.2043 24.1991 32.1485 20.4011C32.1206 16.9102 32.0089 15.6256 31.6737 14.9833C31.199 14.0617 30.1098 13.6428 29.272 14.0897C28.5739 14.4527 27.4568 16.3796 26.4515 18.921L25.6695 20.9317L25.6416 16.4076C25.6416 12.0231 25.6137 11.8555 25.0272 11.4646C24.1615 10.9339 22.6534 10.6547 22.4579 10.9619ZM41.1409 24.227C41.8111 24.8135 42.3976 25.5116 42.4813 25.8188C42.9002 27.3827 40.6103 27.8296 38.8229 26.517C38.2365 26.0981 37.4545 25.5396 37.0077 25.2882C36.533 25.009 36.3096 24.7018 36.4213 24.4225C36.505 24.1991 36.7285 23.3054 36.896 22.4397L37.2032 20.8479L38.5995 22.0208C39.3536 22.6352 40.4985 23.6406 41.1409 24.227Z" fill="white"/>

</svg>

