<svg width="48" height="48" viewBox="0 0 48 48" fill="none" xmlns="http://www.w3.org/2000/svg">

    <path d="M16.0019 24.001C16.0019 19.5827 19.5827 16 24.001 16C28.4193 16 32.0019 19.5827 32.0019 24.001C32.0019 28.4193 28.4193 32.0019 24.001 32.0019C19.5827 32.0019 16.0019 28.4193 16.0019 24.001ZM11.6768 24.001C11.6768 30.8076 17.1943 36.3252 24.001 36.3252C30.8076 36.3252 36.3252 30.8076 36.3252 24.001C36.3252 17.1943 30.8076 11.6768 24.001 11.6768C17.1943 11.6768 11.6768 17.1943 11.6768 24.001ZM33.9329 11.1881C33.9327 11.7577 34.1014 12.3146 34.4177 12.7884C34.734 13.2622 35.1836 13.6315 35.7098 13.8497C36.236 14.0679 36.8151 14.1252 37.3738 14.0142C37.9325 13.9033 38.4458 13.6292 38.8488 13.2266C39.2517 12.824 39.5262 12.3109 39.6376 11.7523C39.749 11.1936 39.6922 10.6145 39.4744 10.0881C39.2566 9.56178 38.8876 9.11182 38.4141 8.79516C37.9406 8.4785 37.3838 8.30936 36.8142 8.30913H36.8131C36.0495 8.30949 35.3173 8.61288 34.7773 9.15268C34.2373 9.69248 33.9336 10.4246 33.9329 11.1881ZM14.3046 43.5372C11.9646 43.4306 10.6927 43.0408 9.8475 42.7115C8.72694 42.2753 7.92742 41.7557 7.08681 40.9163C6.2462 40.0768 5.72586 39.278 5.29154 38.1575C4.96205 37.3127 4.57228 36.0404 4.46591 33.7004C4.34955 31.1705 4.32632 30.4106 4.32632 24.0012C4.32632 17.5917 4.35147 16.8339 4.46591 14.3019C4.57247 11.9619 4.96513 10.6921 5.29154 9.84481C5.72778 8.72425 6.24735 7.92473 7.08681 7.08412C7.92627 6.24351 8.72502 5.72317 9.8475 5.28885C10.6923 4.95937 11.9646 4.56959 14.3046 4.46322C16.8345 4.34686 17.5944 4.32363 24.001 4.32363C30.4075 4.32363 31.1682 4.34878 33.7002 4.46322C36.0402 4.56978 37.31 4.96244 38.1573 5.28885C39.2779 5.72317 40.0774 6.24467 40.918 7.08412C41.7586 7.92358 42.277 8.72425 42.7133 9.84481C43.0427 10.6896 43.4325 11.9619 43.5389 14.3019C43.6553 16.8339 43.6785 17.5917 43.6785 24.0012C43.6785 30.4106 43.6553 31.1684 43.5389 33.7004C43.4323 36.0404 43.0406 37.3123 42.7133 38.1575C42.277 39.278 41.7575 40.0776 40.918 40.9163C40.0785 41.7549 39.2779 42.2753 38.1573 42.7115C37.3125 43.041 36.0402 43.4308 33.7002 43.5372C31.1703 43.6535 30.4104 43.6768 24.001 43.6768C17.5916 43.6768 16.8337 43.6535 14.3046 43.5372ZM14.1058 0.14535C11.5508 0.261706 9.80487 0.666843 8.28014 1.26015C6.70107 1.87284 5.36431 2.69483 4.02851 4.02851C2.69272 5.3622 1.87284 6.70107 1.26015 8.28014C0.666843 9.80583 0.261706 11.5508 0.14535 14.1058C0.0270731 16.6649 0 17.4831 0 24.001C0 30.5189 0.0270731 31.337 0.14535 33.8961C0.261706 36.4513 0.666843 38.1961 1.26015 39.7218C1.87284 41.2999 2.69291 42.6403 4.02851 43.9734C5.36412 45.3065 6.70107 46.1274 8.28014 46.7418C9.80775 47.3351 11.5508 47.7402 14.1058 47.8566C16.6663 47.9729 17.4831 48.0019 24.001 48.0019C30.5189 48.0019 31.337 47.9748 33.8961 47.8566C36.4513 47.7402 38.1961 47.3351 39.7218 46.7418C41.2999 46.1274 42.6376 45.3071 43.9734 43.9734C45.3092 42.6397 46.1274 41.2999 46.7418 39.7218C47.3351 38.1961 47.7421 36.4511 47.8566 33.8961C47.9729 31.3351 48 30.5189 48 24.001C48 17.4831 47.9729 16.6649 47.8566 14.1058C47.7402 11.5506 47.3351 9.80487 46.7418 8.28014C46.1274 6.70203 45.3071 5.36431 43.9734 4.02851C42.6397 2.69272 41.2999 1.87284 39.7237 1.26015C38.1961 0.666843 36.4511 0.259786 33.898 0.14535C31.3389 0.0289932 30.5208 0 24.0029 0C17.485 0 16.6663 0.0270731 14.1058 0.14535Z" fill="url(#paint0_radial_3731_228)"/>

    <path d="M16.0019 24.001C16.0019 19.5827 19.5827 16 24.001 16C28.4193 16 32.0019 19.5827 32.0019 24.001C32.0019 28.4193 28.4193 32.0019 24.001 32.0019C19.5827 32.0019 16.0019 28.4193 16.0019 24.001ZM11.6768 24.001C11.6768 30.8076 17.1943 36.3252 24.001 36.3252C30.8076 36.3252 36.3252 30.8076 36.3252 24.001C36.3252 17.1943 30.8076 11.6768 24.001 11.6768C17.1943 11.6768 11.6768 17.1943 11.6768 24.001ZM33.9329 11.1881C33.9327 11.7577 34.1014 12.3146 34.4177 12.7884C34.734 13.2622 35.1836 13.6315 35.7098 13.8497C36.236 14.0679 36.8151 14.1252 37.3738 14.0142C37.9325 13.9033 38.4458 13.6292 38.8488 13.2266C39.2517 12.824 39.5262 12.3109 39.6376 11.7523C39.749 11.1936 39.6922 10.6145 39.4744 10.0881C39.2566 9.56178 38.8876 9.11182 38.4141 8.79516C37.9406 8.4785 37.3838 8.30936 36.8142 8.30913H36.8131C36.0495 8.30949 35.3173 8.61288 34.7773 9.15268C34.2373 9.69248 33.9336 10.4246 33.9329 11.1881ZM14.3046 43.5372C11.9646 43.4306 10.6927 43.0408 9.8475 42.7115C8.72694 42.2753 7.92742 41.7557 7.08681 40.9163C6.2462 40.0768 5.72586 39.278 5.29154 38.1575C4.96205 37.3127 4.57228 36.0404 4.46591 33.7004C4.34955 31.1705 4.32632 30.4106 4.32632 24.0012C4.32632 17.5917 4.35147 16.8339 4.46591 14.3019C4.57247 11.9619 4.96513 10.6921 5.29154 9.84481C5.72778 8.72425 6.24735 7.92473 7.08681 7.08412C7.92627 6.24351 8.72502 5.72317 9.8475 5.28885C10.6923 4.95937 11.9646 4.56959 14.3046 4.46322C16.8345 4.34686 17.5944 4.32363 24.001 4.32363C30.4075 4.32363 31.1682 4.34878 33.7002 4.46322C36.0402 4.56978 37.31 4.96244 38.1573 5.28885C39.2779 5.72317 40.0774 6.24467 40.918 7.08412C41.7586 7.92358 42.277 8.72425 42.7133 9.84481C43.0427 10.6896 43.4325 11.9619 43.5389 14.3019C43.6553 16.8339 43.6785 17.5917 43.6785 24.0012C43.6785 30.4106 43.6553 31.1684 43.5389 33.7004C43.4323 36.0404 43.0406 37.3123 42.7133 38.1575C42.277 39.278 41.7575 40.0776 40.918 40.9163C40.0785 41.7549 39.2779 42.2753 38.1573 42.7115C37.3125 43.041 36.0402 43.4308 33.7002 43.5372C31.1703 43.6535 30.4104 43.6768 24.001 43.6768C17.5916 43.6768 16.8337 43.6535 14.3046 43.5372ZM14.1058 0.14535C11.5508 0.261706 9.80487 0.666843 8.28014 1.26015C6.70107 1.87284 5.36431 2.69483 4.02851 4.02851C2.69272 5.3622 1.87284 6.70107 1.26015 8.28014C0.666843 9.80583 0.261706 11.5508 0.14535 14.1058C0.0270731 16.6649 0 17.4831 0 24.001C0 30.5189 0.0270731 31.337 0.14535 33.8961C0.261706 36.4513 0.666843 38.1961 1.26015 39.7218C1.87284 41.2999 2.69291 42.6403 4.02851 43.9734C5.36412 45.3065 6.70107 46.1274 8.28014 46.7418C9.80775 47.3351 11.5508 47.7402 14.1058 47.8566C16.6663 47.9729 17.4831 48.0019 24.001 48.0019C30.5189 48.0019 31.337 47.9748 33.8961 47.8566C36.4513 47.7402 38.1961 47.3351 39.7218 46.7418C41.2999 46.1274 42.6376 45.3071 43.9734 43.9734C45.3092 42.6397 46.1274 41.2999 46.7418 39.7218C47.3351 38.1961 47.7421 36.4511 47.8566 33.8961C47.9729 31.3351 48 30.5189 48 24.001C48 17.4831 47.9729 16.6649 47.8566 14.1058C47.7402 11.5506 47.3351 9.80487 46.7418 8.28014C46.1274 6.70203 45.3071 5.36431 43.9734 4.02851C42.6397 2.69272 41.2999 1.87284 39.7237 1.26015C38.1961 0.666843 36.4511 0.259786 33.898 0.14535C31.3389 0.0289932 30.5208 0 24.0029 0C17.485 0 16.6663 0.0270731 14.1058 0.14535Z" fill="url(#paint1_radial_3731_228)"/>

    <path d="M24.7266 27.0312C25.0182 27.0312 25.2786 26.974 25.5078 26.8594C25.737 26.7448 25.9193 26.5833 26.0547 26.375C26.1953 26.1667 26.2708 25.9245 26.2812 25.6484H28.2266C28.2161 26.2214 28.0547 26.7344 27.7422 27.1875C27.4297 27.6406 27.013 28 26.4922 28.2656C25.9766 28.526 25.3984 28.6562 24.7578 28.6562C24.1068 28.6562 23.5391 28.5469 23.0547 28.3281C22.5703 28.1094 22.1667 27.8047 21.8438 27.4141C21.526 27.0234 21.2865 26.5703 21.125 26.0547C20.9688 25.5391 20.8906 24.987 20.8906 24.3984V24.1484C20.8906 23.5599 20.9688 23.0078 21.125 22.4922C21.2865 21.9766 21.526 21.5234 21.8438 21.1328C22.1667 20.7422 22.5703 20.4375 23.0547 20.2188C23.5391 20 24.1042 19.8906 24.75 19.8906C25.4323 19.8906 26.0312 20.0234 26.5469 20.2891C27.0677 20.5547 27.474 20.9297 27.7656 21.4141C28.0625 21.8984 28.2161 22.4688 28.2266 23.125H26.2812C26.2708 22.8229 26.2031 22.5521 26.0781 22.3125C25.9531 22.0729 25.776 21.8802 25.5469 21.7344C25.3177 21.5885 25.0391 21.5156 24.7109 21.5156C24.362 21.5156 24.0703 21.5885 23.8359 21.7344C23.6068 21.8802 23.4271 22.0807 23.2969 22.3359C23.1719 22.5859 23.0833 22.8672 23.0312 23.1797C22.9844 23.487 22.9609 23.8099 22.9609 24.1484V24.3984C22.9609 24.7422 22.9844 25.0703 23.0312 25.3828C23.0833 25.6953 23.1719 25.9766 23.2969 26.2266C23.4271 26.4714 23.6068 26.6667 23.8359 26.8125C24.0703 26.9583 24.3672 27.0312 24.7266 27.0312Z" fill="#EF4444"/>

    <defs>

        <radialGradient id="paint0_radial_3731_228" cx="0" cy="0" r="1" gradientUnits="userSpaceOnUse" gradientTransform="translate(6.37734 48.2287) scale(62.6625 62.6625)">

            <stop offset="0.09" stop-color="#FA8F21"/>

            <stop offset="0.78" stop-color="#D82D7E"/>

        </radialGradient>

        <radialGradient id="paint1_radial_3731_228" cx="0" cy="0" r="1" gradientUnits="userSpaceOnUse" gradientTransform="translate(29.1111 50.3792) scale(49.3867)">

            <stop offset="0.64" stop-color="#8C3AAA" stop-opacity="0"/>

            <stop offset="1" stop-color="#8C3AAA"/>

        </radialGradient>

    </defs>

</svg>


