<svg width="143" height="48" viewBox="0 0 143 48" fill="none" xmlns="http://www.w3.org/2000/svg">

    <path d="M97.7219 42.6562C98.0292 42.6562 98.3052 42.5964 98.55 42.4766C98.8 42.3516 99.0005 42.1797 99.1516 41.9609C99.3078 41.7422 99.3937 41.4896 99.4094 41.2031H101.183C101.172 41.75 101.011 42.2474 100.698 42.6953C100.386 43.1432 99.9719 43.5 99.4562 43.7656C98.9406 44.026 98.3703 44.1562 97.7453 44.1562C97.0995 44.1562 96.537 44.0469 96.0578 43.8281C95.5786 43.6042 95.1802 43.2969 94.8625 42.9062C94.5448 42.5156 94.3052 42.0651 94.1437 41.5547C93.9875 41.0443 93.9094 40.4974 93.9094 39.9141V39.6406C93.9094 39.0573 93.9875 38.5104 94.1437 38C94.3052 37.4844 94.5448 37.0312 94.8625 36.6406C95.1802 36.25 95.5786 35.9453 96.0578 35.7266C96.537 35.5026 97.0969 35.3906 97.7375 35.3906C98.4146 35.3906 99.0083 35.526 99.5187 35.7969C100.029 36.0625 100.43 36.4349 100.722 36.9141C101.019 37.388 101.172 37.9401 101.183 38.5703H99.4094C99.3937 38.2578 99.3156 37.9766 99.175 37.7266C99.0396 37.4714 98.8469 37.2682 98.5969 37.1172C98.3521 36.9661 98.0578 36.8906 97.7141 36.8906C97.3338 36.8906 97.0187 36.9688 96.7687 37.125C96.5187 37.276 96.3234 37.4844 96.1828 37.75C96.0422 38.0104 95.9406 38.3047 95.8781 38.6328C95.8208 38.9557 95.7922 39.2917 95.7922 39.6406V39.9141C95.7922 40.263 95.8208 40.6016 95.8781 40.9297C95.9354 41.2578 96.0344 41.5521 96.175 41.8125C96.3208 42.0677 96.5187 42.2734 96.7687 42.4297C97.0187 42.5807 97.3365 42.6562 97.7219 42.6562Z" fill="#EF4444"/>

    <path d="M104.494 32V44H102.603V32H104.494Z" fill="#EF4444"/>

    <path d="M106.047 39.8672V39.6875C106.047 39.0781 106.135 38.513 106.312 37.9922C106.49 37.4661 106.745 37.0104 107.078 36.625C107.417 36.2344 107.828 35.9323 108.312 35.7188C108.802 35.5 109.354 35.3906 109.969 35.3906C110.589 35.3906 111.141 35.5 111.625 35.7188C112.115 35.9323 112.529 36.2344 112.867 36.625C113.206 37.0104 113.464 37.4661 113.641 37.9922C113.818 38.513 113.906 39.0781 113.906 39.6875V39.8672C113.906 40.4766 113.818 41.0417 113.641 41.5625C113.464 42.0833 113.206 42.5391 112.867 42.9297C112.529 43.3151 112.117 43.6172 111.633 43.8359C111.148 44.0495 110.599 44.1562 109.984 44.1562C109.365 44.1562 108.81 44.0495 108.32 43.8359C107.836 43.6172 107.424 43.3151 107.086 42.9297C106.747 42.5391 106.49 42.0833 106.312 41.5625C106.135 41.0417 106.047 40.4766 106.047 39.8672ZM107.93 39.6875V39.8672C107.93 40.2474 107.969 40.6068 108.047 40.9453C108.125 41.2839 108.247 41.5807 108.414 41.8359C108.581 42.0911 108.794 42.2917 109.055 42.4375C109.315 42.5833 109.625 42.6562 109.984 42.6562C110.333 42.6562 110.635 42.5833 110.891 42.4375C111.151 42.2917 111.365 42.0911 111.531 41.8359C111.698 41.5807 111.82 41.2839 111.898 40.9453C111.982 40.6068 112.023 40.2474 112.023 39.8672V39.6875C112.023 39.3125 111.982 38.9583 111.898 38.625C111.82 38.2865 111.695 37.987 111.523 37.7266C111.357 37.4661 111.143 37.263 110.883 37.1172C110.628 36.9661 110.323 36.8906 109.969 36.8906C109.615 36.8906 109.307 36.9661 109.047 37.1172C108.792 37.263 108.581 37.4661 108.414 37.7266C108.247 37.987 108.125 38.2865 108.047 38.625C107.969 38.9583 107.93 39.3125 107.93 39.6875Z" fill="#EF4444"/>

    <path d="M117.202 37.3516V44H115.319V35.5469H117.092L117.202 37.3516ZM116.866 39.4609L116.256 39.4531C116.261 38.8542 116.345 38.3047 116.506 37.8047C116.673 37.3047 116.902 36.875 117.194 36.5156C117.491 36.1562 117.845 35.8802 118.256 35.6875C118.668 35.4896 119.126 35.3906 119.631 35.3906C120.037 35.3906 120.405 35.4479 120.733 35.5625C121.066 35.6719 121.35 35.8516 121.584 36.1016C121.824 36.3516 122.006 36.6771 122.131 37.0781C122.256 37.474 122.319 37.9609 122.319 38.5391V44H120.428V38.5312C120.428 38.125 120.368 37.8047 120.248 37.5703C120.134 37.3307 119.965 37.1615 119.741 37.0625C119.522 36.9583 119.248 36.9062 118.92 36.9062C118.597 36.9062 118.308 36.974 118.053 37.1094C117.798 37.2448 117.582 37.4297 117.405 37.6641C117.233 37.8984 117.1 38.1693 117.006 38.4766C116.912 38.7839 116.866 39.112 116.866 39.4609Z" fill="#EF4444"/>

    <path d="M127.817 44.1562C127.192 44.1562 126.627 44.0547 126.122 43.8516C125.622 43.6432 125.195 43.3542 124.841 42.9844C124.492 42.6146 124.223 42.1797 124.036 41.6797C123.848 41.1797 123.755 40.6406 123.755 40.0625V39.75C123.755 39.0885 123.851 38.4896 124.044 37.9531C124.236 37.4167 124.505 36.9583 124.848 36.5781C125.192 36.1927 125.598 35.8984 126.067 35.6953C126.536 35.4922 127.044 35.3906 127.591 35.3906C128.195 35.3906 128.723 35.4922 129.177 35.6953C129.63 35.8984 130.005 36.1849 130.302 36.5547C130.604 36.9193 130.828 37.3542 130.973 37.8594C131.124 38.3646 131.2 38.9219 131.2 39.5312V40.3359H124.669V38.9844H129.341V38.8359C129.33 38.4974 129.262 38.1797 129.137 37.8828C129.018 37.5859 128.833 37.3464 128.583 37.1641C128.333 36.9818 127.999 36.8906 127.583 36.8906C127.27 36.8906 126.992 36.9583 126.747 37.0938C126.507 37.224 126.307 37.4141 126.145 37.6641C125.984 37.9141 125.859 38.2161 125.77 38.5703C125.687 38.9193 125.645 39.3125 125.645 39.75V40.0625C125.645 40.4323 125.695 40.776 125.794 41.0938C125.898 41.4062 126.049 41.6797 126.247 41.9141C126.445 42.1484 126.684 42.3333 126.966 42.4688C127.247 42.599 127.567 42.6641 127.927 42.6641C128.38 42.6641 128.783 42.5729 129.137 42.3906C129.492 42.2083 129.799 41.9505 130.059 41.6172L131.052 42.5781C130.869 42.8438 130.632 43.099 130.341 43.3438C130.049 43.5833 129.692 43.7786 129.27 43.9297C128.854 44.0807 128.369 44.1562 127.817 44.1562Z" fill="#EF4444"/>

    <path d="M13.2142 0.126223C12.2647 0.48927 10.7008 2.44413 9.77926 4.37107C8.52256 7.05203 7.96403 9.42579 7.96403 12.1626C7.96403 14.1454 8.07573 14.7877 8.71805 16.212C9.13695 17.1056 9.80718 18.2227 10.2261 18.6695C11.1756 19.6749 12.935 20.4847 14.1358 20.5127C14.8898 20.5127 15.0295 20.6244 15.0295 21.2108C15.0295 21.6018 14.7781 22.5234 14.4989 23.3053C13.2701 26.5169 10.7846 28.3321 7.5172 28.3321C5.19929 28.3321 3.52369 27.5781 2.90931 26.2655C2.15529 24.6737 2.32285 23.6963 3.60747 22.1324C4.4732 21.127 4.80832 20.4568 4.92003 19.5352C5.03173 18.4182 4.97588 18.2506 4.38942 18.0551C2.7976 17.4687 0.814813 18.9488 0.200427 21.127C0.0328672 21.7973 -0.0509126 23.054 0.0328672 23.9476C0.451767 28.5276 3.88674 30.8734 9.58377 30.4825C12.7116 30.259 14.3313 29.6447 16.0348 27.9132C17.8221 26.1538 18.5761 24.171 18.9392 20.5406C19.2464 17.4687 19.3022 5.71155 19.0509 2.55584C18.8554 0.433416 18.8554 0.40549 17.9897 0.293783C16.0069 -0.0134097 13.7448 -0.0971896 13.2142 0.126223ZM14.9457 4.0918C15.1132 4.31522 15.1691 7.05203 15.0853 10.9338C14.9736 16.966 14.9178 17.4407 14.443 17.5804C13.5214 17.8876 12.4044 17.1056 11.6783 15.6255C11.036 14.3688 10.9801 13.894 10.9801 10.878C10.9801 7.24751 11.2873 5.93496 12.4323 4.59448C13.1584 3.70083 14.443 3.44949 14.9457 4.0918ZM48.709 0.880242C48.6252 1.10366 48.5414 1.94145 48.5414 2.7234C48.5414 3.53327 48.4576 5.01338 48.3459 6.04667L48.1784 7.94568H46.8937C45.637 7.94568 43.5984 8.33665 43.3191 8.58799C43.2633 8.67177 43.3191 8.97896 43.4867 9.28616C43.766 9.78883 44.3524 10.0122 47.3685 10.6266L47.9829 10.7383L47.927 17.3849C47.8432 23.1936 47.8991 24.2269 48.3738 25.7349C49.2675 28.6952 51.3061 30.4825 53.3727 30.0915C54.406 29.896 55.7744 28.4159 56.696 26.5169C57.1149 25.5953 57.4779 25.0926 57.4779 25.3998C57.4779 26.3214 58.7905 28.8069 59.4886 29.2816C59.8517 29.533 60.8291 29.8401 61.639 30.0077C64.0407 30.4545 65.437 29.4492 66.8613 26.2097L67.3081 25.1206L67.5594 25.9304C67.8666 27.0475 69.3747 28.5276 70.38 28.7231C71.4692 28.9465 72.9213 28.3042 73.6754 27.2709L74.3177 26.4052L74.9041 27.5781C75.6861 29.0861 76.5239 29.6726 78.5346 30.0356C80.0147 30.287 80.266 30.287 80.9084 29.7843C81.2993 29.505 81.9696 28.6393 82.3885 27.8853L83.1704 26.5169V29.8402L81.1039 31.8788C78.8139 34.1129 77.1383 37.0452 76.3284 40.2009C74.96 45.5908 76.6914 47.9645 82.0254 47.9925C84.3154 48.0204 84.3433 48.0204 85.1253 47.0988C86.4378 45.5349 86.6333 44.362 86.8009 37.2686L86.9405 30.7059H87.8342C88.3368 30.7059 88.8954 30.5383 89.0909 30.3428C89.3981 30.0356 89.3422 29.8681 88.7837 29.4213C88.4206 29.142 87.8062 28.8906 87.4153 28.8906H86.7171L86.8567 24.3386C86.9684 20.8478 87.1081 19.5911 87.4711 18.8929L87.9459 17.9713L87.0243 17.6083L86.1027 17.2173V14.7039C86.1027 12.3022 86.0469 12.1347 85.3208 11.3527C84.9019 10.9059 84.0082 10.4032 83.3659 10.2077C82.7236 10.0402 81.6065 9.62127 80.8804 9.28616C79.3445 8.58799 78.5346 8.72762 77.1941 9.90054C75.2951 11.5761 74.3456 14.8715 73.9826 20.9316C73.7591 24.8134 73.3402 26.1818 72.279 26.5169C71.4971 26.7682 70.9665 26.2655 70.6034 25.0088C70.2404 23.6404 70.2404 20.4847 70.6593 18.9208C70.9665 17.6921 70.9386 17.6083 70.2683 17.0498C69.626 16.5192 69.5422 16.212 69.4305 14.1454C69.263 11.2131 68.8441 10.6266 66.2469 9.56542C61.0525 7.443 58.4554 9.78884 57.4779 17.5524C57.3383 18.7533 57.087 19.8983 56.9473 20.0658C56.8077 20.2334 56.4726 21.2388 56.2492 22.272C55.6906 24.6179 54.9087 26.2376 53.9592 26.8241C53.2889 27.2709 53.2331 27.2709 52.7025 26.7403C51.8647 25.9025 51.6133 23.2774 51.7809 17.4407C51.9764 10.124 51.8647 10.5429 53.7358 10.2915C54.6015 10.2077 56.1095 10.096 57.087 10.096C59.0139 10.0681 59.2932 9.81676 58.3157 8.92311C57.8689 8.53214 57.1149 8.36458 55.0204 8.25287L52.3115 8.08531L52.3674 6.13045C52.3953 5.04131 52.507 3.5612 52.5908 2.83511C52.7583 1.52255 52.7304 1.49463 51.8368 1.13158C50.2729 0.517196 48.8765 0.377563 48.709 0.880242ZM82.2488 12.5256C82.9749 13.168 83.0308 13.3355 83.0029 15.2625C82.947 19.0325 82.2209 23.2774 81.2993 25.1206C80.657 26.4052 79.512 27.4943 78.7859 27.4943C78.4229 27.4943 77.9481 27.1871 77.6689 26.7403C76.9148 25.6232 76.9428 18.2506 77.6968 16.0444C78.4229 13.8661 79.2048 12.6932 80.2102 12.2464C81.3552 11.7437 81.3552 11.7437 82.2488 12.5256ZM66.0793 13.1121C66.8333 14.0895 67.1126 16.1282 66.582 16.9381C66.3586 17.3011 66.0514 18.9208 65.8838 20.5685C65.4649 24.3107 64.9064 26.2655 63.901 27.2709C62.7281 28.4159 61.7507 28.3321 61.1922 26.9916C60.103 24.4503 60.5499 17.1056 61.9741 14.3409C62.9795 12.3581 65.0181 11.7437 66.0793 13.1121ZM82.8912 41.2621C82.3885 44.5016 81.1876 46.1772 79.6517 45.8142C78.1995 45.4511 77.7526 42.826 78.5625 39.6424C79.1769 37.3245 80.657 34.2805 81.9417 32.8004L83.0308 31.5716L83.1146 35.4534C83.1425 37.6038 83.0587 40.2289 82.8912 41.2621Z" fill="#1E293B"/>

    <path d="M103.976 10.0122C102.551 11.4924 101.714 13.7265 101.295 17.3011C100.904 20.6523 99.7868 25.0647 99.0048 26.489C98.5301 27.3547 98.2229 27.6339 97.6923 27.6339C96.5752 27.6339 96.2122 26.098 96.3797 21.909C96.4914 19.3677 96.6869 17.8596 97.1617 16.3516L97.804 14.285L97.1896 13.7823C96.7986 13.4752 95.8491 13.2238 94.6762 13.1121C93.6429 13.0283 92.6096 12.9166 92.3862 12.8887C92.1069 12.8328 91.9673 12.4698 91.9673 11.7158C91.9394 10.124 91.6601 9.81676 90.5151 9.98432C88.8116 10.2636 88.8116 10.3194 88.9512 15.0111C89.0629 17.7479 88.9792 20.01 88.7557 21.3505C88.2531 24.3107 88.281 24.5341 88.8395 24.6458C89.5935 24.8134 90.3196 22.8026 90.9061 18.8371L91.4367 15.3462H93.0844L92.9727 18.9767C92.8051 26.098 94.2852 29.7284 97.3571 29.7284C98.6418 29.7284 99.7588 28.8627 100.569 27.215L101.267 25.8466L101.714 27.0475C101.965 27.6898 102.524 28.5555 102.942 28.9465C103.864 29.8122 106.461 30.4545 107.522 30.0356C108.444 29.7005 109.645 28.2204 110.399 26.5727L110.985 25.2043L111.516 26.3772C112.856 29.3654 115.928 29.5888 117.744 26.852L118.498 25.707L118.665 27.1592C118.917 29.0024 119.224 29.3654 120.76 29.6167C123.189 29.9798 123.189 29.9519 123.748 25.7629C124.223 21.9928 124.949 18.8371 125.368 18.8371C125.479 18.8371 125.619 20.7081 125.675 22.9981C125.759 26.6007 125.842 27.243 126.289 27.7457C127.378 28.9465 130.087 28.751 130.087 27.4664C130.087 26.489 131.204 22.4396 132.126 20.0938L133.019 17.8596L133.159 21.7694C133.271 25.2323 133.382 25.8466 133.997 27.0475C134.388 27.8294 135.03 28.6952 135.449 29.0024C136.482 29.7564 138.465 29.7564 139.47 29.0024C141.621 27.4105 143.855 20.5127 142.235 20.5127C141.733 20.5127 141.397 21.1829 141.118 22.6072C140.476 26.1818 138.326 28.2204 137.348 26.1538C136.762 24.953 136.678 20.1496 137.208 17.8596C138.046 14.2292 138.074 14.5084 136.957 13.6706C136.259 13.14 135.477 12.8328 134.583 12.7491L133.271 12.6374L132.545 14.2571C132.126 15.1787 131.204 17.6083 130.45 19.6749L129.11 23.445L128.942 14.9273L128.132 14.5084C125.898 13.3634 124.725 14.3967 123.413 18.7254C122.91 20.401 122.463 21.8811 122.407 22.0486C122.351 22.1883 122.296 19.9262 122.296 16.966C122.268 13.6427 122.156 11.5482 121.988 11.4365C121.821 11.3248 121.011 11.1852 120.201 11.1014L118.693 10.9338L118.581 16.212C118.47 20.6523 118.358 21.7694 117.855 23.3332C116.766 26.6007 115.37 27.606 114.56 25.6791C114.085 24.5341 114.029 20.3172 114.476 18.6974C114.755 17.6921 114.728 17.5524 114.085 17.0218C113.499 16.5471 113.387 16.1282 113.219 14.2571C112.996 11.7716 112.577 10.7104 111.6 10.2915C108.667 8.92311 108.165 8.78348 106.713 8.78348C105.205 8.78348 105.065 8.83933 103.976 10.0122ZM109.421 12.6932C110.343 13.1959 110.957 16.3516 110.259 17.0498C110.12 17.1894 109.84 18.6416 109.701 20.2334C109.31 24.0314 108.695 26.1818 107.718 27.243C106.685 28.3321 105.54 28.2763 104.981 27.1033C104.032 25.0926 104.087 19.4235 105.093 15.9327C105.931 13.1121 107.69 11.7716 109.421 12.6932ZM22.4579 10.9618C22.2345 11.3527 21.6481 24.5899 21.7877 26.1538C21.9832 27.997 22.5976 28.6114 24.2173 28.6114C24.9155 28.6114 25.6416 28.4997 25.8091 28.388C26.0046 28.2763 26.3397 27.1313 26.5911 25.8187C27.1217 23.2215 27.9595 20.4847 28.5739 19.3956C28.9369 18.7533 28.9648 19.0046 28.9928 22.0486C28.9928 25.7629 29.3838 27.0475 30.6684 27.7177C31.59 28.1925 33.3493 27.9691 34.3547 27.215C35.1925 26.6007 35.1925 26.6007 35.5835 27.1592C36.4771 28.4438 40.331 29.1978 43.0399 28.6114C45.0785 28.1925 46.3073 27.215 46.3073 25.9863C46.3073 24.7854 45.8884 24.2548 42.984 21.909C40.0796 19.5632 39.6049 18.9488 39.6049 17.5804C39.6049 15.5696 42.0904 14.3688 43.5425 15.6534C44.2128 16.2678 44.7992 16.1282 45.6091 15.1787C46.1956 14.4805 46.3073 14.0616 46.2514 13.14C46.1677 12.1905 46.028 11.9392 45.3298 11.6041C43.766 10.85 38.6554 12.2185 36.8402 13.894C35.388 15.2345 35.0529 17.3011 35.9744 19.0884C36.3933 19.9541 36.4492 20.2055 36.142 20.3172C35.9465 20.401 35.6952 21.0153 35.5835 21.6576C35.1366 24.4782 33.6565 26.4052 32.6512 25.4277C32.2881 25.0368 32.2043 24.199 32.1485 20.401C32.1206 16.9101 32.0089 15.6255 31.6737 14.9832C31.199 14.0616 30.1098 13.6427 29.272 14.0895C28.5739 14.4526 27.4568 16.3795 26.4515 18.9208L25.6695 20.9316L25.6416 16.4074C25.6416 12.023 25.6137 11.8554 25.0272 11.4644C24.1615 10.9338 22.6534 10.6546 22.4579 10.9618ZM41.1409 24.2269C41.8111 24.8134 42.3976 25.5115 42.4813 25.8187C42.9002 27.3826 40.6103 27.8294 38.8229 26.5169C38.2365 26.098 37.4545 25.5394 37.0077 25.2881C36.533 25.0088 36.3096 24.7017 36.4213 24.4224C36.505 24.199 36.7285 23.3053 36.896 22.4396L37.2032 20.8478L38.5995 22.0207C39.3536 22.6351 40.4985 23.6404 41.1409 24.2269Z" fill="#1E293B"/>

</svg>
